<?xml version="1.0" standalone="no"?><!DOCTYPE svg PUBLIC "-//W3C//DTD SVG 1.1//EN" "http://www.w3.org/Graphics/SVG/1.1/DTD/svg11.dtd"><svg t="1784035445319" class="icon" viewBox="0 0 1024 1024" version="1.1" xmlns="http://www.w3.org/2000/svg" p-id="9773" xmlns:xlink="http://www.w3.org/1999/xlink" width="200" height="200"><path d="M512 512m-512 0a512 512 0 1 0 1024 0 512 512 0 1 0-1024 0Z" fill="#056DE8" p-id="9774"></path><path d="M501.333333 390.357333H343.04v292.266667h38.826667l5.12 35.157333 52.48-35.2h61.866666v-292.266666z m-66.901333 255.744l-30.805333 20.650667-2.986667-20.650667h-22.186667V426.624h87.125334v219.477333h-31.146667zM313.813333 521.813333H256.298667c0-6.4 0.426667-13.056 0.469333-19.925333V426.624h65.621333v-17.749333a19.114667 19.114667 0 0 0-5.162666-13.098667 17.152 17.152 0 0 0-12.458667-5.418667H202.325333l1.066667-3.498666C206.933333 375.637333 218.197333 341.333333 218.197333 341.333333a52.352 52.352 0 0 0-30.976 9.557334c-7.338667 5.461333-11.733333 9.344-17.621333 26.624-6.826667 19.882667-12.8 39.082667-16.853333 50.56-6.186667 18.261333-21.162667 50.432-21.162667 50.432 11.264-0.170667 22.314667-2.986667 32.426667-8.362667 14.336-8.106667 21.546667-20.522667 26.368-39.424l1.152-4.096h29.994666v75.221333c0 6.826667-0.554667 13.44-0.938666 20.010667H167.68a33.536 33.536 0 0 0-24.362667 10.581333 37.290667 37.290667 0 0 0-10.069333 25.642667H217.173333c-1.706667 16.981333-5.034667 33.706667-9.984 49.92a234.026667 234.026667 0 0 1-38.698666 72.192c-12.629333 14.506667-26.154667 28.074667-40.448 40.704 0 0 40.234667 16.085333 69.717333-13.056 17.834667-17.664 33.834667-52.181333 41.514667-78.336a405.973333 405.973333 0 0 0 14.378666-71.552h76.714667v-18.773333a17.749333 17.749333 0 0 0-4.821333-12.288 15.914667 15.914667 0 0 0-11.690667-5.077334z" fill="#FFFFFF" p-id="9775"></path><path d="M291.584 593.493333l-30.250667 20.906667 65.92 104.704c4.522667-9.770667 7.509333-20.309333 8.789334-31.146667a47.104 47.104 0 0 0-3.669334-30.421333l-40.789333-64.042667zM909.738667 341.589333c5.546667-1.536 7.381333 4.266667 8.362666 7.808 2.56 8.789333-3.968 36.778667-9.002666 42.410667l-11.136 0.682667c-18.986667 1.109333-68.778667 3.925333-123.477334 6.826666v131.285334l47.104-0.042667-26.453333-18.048 41.728-50.218667a33.024 33.024 0 0 1 43.477333-5.461333l4.992 3.413333-58.325333 70.314667H938.666667v19.328a18.474667 18.474667 0 0 1-4.949334 12.672 16.298667 16.298667 0 0 1-11.904 5.248h-147.541333v106.794667c0 38.528-21.034667 49.194667-38.826667 50.133333-11.946667 1.493333-24.021333 0.170667-35.413333-3.925333a55.552 55.552 0 0 1-18.346667-14.933334 59.690667 59.690667 0 0 1-10.965333-21.717333h51.242667c10.069333-0.298667 16.128-4.565333 16.128-17.066667v-99.285333H605.866667a34.005333 34.005333 0 0 1-24.746667-10.922667 38.4 38.4 0 0 1-10.24-26.282666l75.690667-0.042667-54.613334-68.949333 5.034667-3.328a33.28 33.28 0 0 1 23.04-4.949334c8.106667 1.152 15.36 5.248 20.138667 11.349334l38.485333 48.810666-25.813333 17.066667h85.205333V401.408c-44.458667 2.261333-87.893333 4.437333-117.674667 5.76a32.298667 32.298667 0 0 1-24.618666-9.898667 36.650667 36.650667 0 0 1-10.325334-25.728s78.378667-3.285333 166.229334-10.112c50.176-3.925333 65.92-5.12 102.101333-9.6 18.816-2.090667 37.546667-5.504 55.936-10.197333z" fill="#FFFFFF" p-id="9776"></path></svg>